<svg id="Capa_1" data-name="Capa 1" xmlns="http://www.w3.org/2000/svg" viewBox="0 0 402 438.53"><defs><style>.cls-1{fill:#007155;}</style></defs><title>user</title><path class="cls-1" d="M219.26,219.27q45.42,0,77.52-32.12t32.12-77.52q0-45.39-32.12-77.52T219.26,0q-45.39,0-77.51,32.12t-32.12,77.51q0,45.41,32.12,77.52T219.26,219.27Z" transform="translate(-18.27)"/><path class="cls-1" d="M419.26,335a291.34,291.34,0,0,0-4-31.12,241.41,241.41,0,0,0-7.57-31,146.93,146.93,0,0,0-12.28-27.84A100,100,0,0,0,377.71,222,74.73,74.73,0,0,0,353.3,206.7,85.9,85.9,0,0,0,321.46,201q-2.56,0-12,6.14t-21.26,13.71q-11.85,7.56-30.84,13.69a121.37,121.37,0,0,1-76.23,0q-19-6.12-30.83-13.69T129,207.13q-9.42-6.13-12-6.14a85.85,85.85,0,0,0-31.83,5.71A74.67,74.67,0,0,0,60.8,222,100.27,100.27,0,0,0,43.11,245.1a147.21,147.21,0,0,0-12.28,27.84,243.08,243.08,0,0,0-7.57,31,288.32,288.32,0,0,0-4,31.12q-1,14.41-1,29.55,0,34.26,20.84,54.1T94.5,438.53H344q34.55,0,55.39-19.84t20.85-54.1Q420.26,349.46,419.26,335Z" transform="translate(-18.27)"/></svg>